<svg width="36" height="36" viewBox="0 0 36 36" fill="none" xmlns="http://www.w3.org/2000/svg">
<circle cx="18" cy="18" r="18" fill="#FFF2F0"/>
<path d="M19.4062 10.125V11.3406C19.4062 11.6245 19.188 11.8689 18.9044 11.8822C18.6016 11.8965 18.3516 11.6552 18.3516 11.3555V10.125H16.8047V11.3406C16.8047 11.6245 16.5865 11.8689 16.3028 11.8822C16 11.8965 15.75 11.6552 15.75 11.3555V10.125H14.2031V11.3406C14.2031 11.6245 13.9849 11.8689 13.7013 11.8822C13.3984 11.8965 13.1484 11.6552 13.1484 11.3555V10.125H11.6016V11.3406C11.6016 11.6245 11.3833 11.8689 11.0997 11.8822C10.7969 11.8965 10.5469 11.6552 10.5469 11.3555V10.125C9.69254 10.125 9 10.8175 9 11.6719V12.9375H20.9531V11.6719C20.9531 10.8175 20.2606 10.125 19.4062 10.125Z" fill="#FC431E"/>
<path d="M11.6016 9.52734C11.6016 9.23611 11.3655 9 11.0742 9C10.783 9 10.5469 9.23611 10.5469 9.52734V10.125H11.6016V9.52734Z" fill="#FC431E"/>
<path d="M14.2031 9.52734C14.2031 9.23611 13.967 9 13.6758 9C13.3845 9 13.1484 9.23611 13.1484 9.52734V10.125H14.2031V9.52734Z" fill="#FC431E"/>
<path d="M16.8047 9.52734C16.8047 9.23611 16.5686 9 16.2773 9C15.9861 9 15.75 9.23611 15.75 9.52734V10.125H16.8047V9.52734Z" fill="#FC431E"/>
<path d="M19.4062 9.52734C19.4062 9.23611 19.1701 9 18.8789 9C18.5877 9 18.3516 9.23611 18.3516 9.52734V10.125H19.4062V9.52734Z" fill="#FC431E"/>
<path d="M9 13.9922V25.418C9 26.2903 9.7097 27 10.582 27H19.3711C20.2434 27 20.9531 26.2903 20.9531 25.418V13.9922H9ZM17.0859 25.2422H11.6367C11.3455 25.2422 11.1094 25.0061 11.1094 24.7148C11.1094 24.4236 11.3455 24.1875 11.6367 24.1875H17.0859C17.3772 24.1875 17.6133 24.4236 17.6133 24.7148C17.6133 25.0061 17.3772 25.2422 17.0859 25.2422ZM18.3164 23.1328H11.6367C11.3455 23.1328 11.1094 22.8967 11.1094 22.6055C11.1094 22.3142 11.3455 22.0781 11.6367 22.0781H18.3164C18.6076 22.0781 18.8438 22.3142 18.8438 22.6055C18.8438 22.8967 18.6076 23.1328 18.3164 23.1328ZM18.3164 21.0234H11.6367C11.3455 21.0234 11.1094 20.7873 11.1094 20.4961C11.1094 20.2049 11.3455 19.9688 11.6367 19.9688H18.3164C18.6076 19.9688 18.8438 20.2049 18.8438 20.4961C18.8438 20.7873 18.6076 21.0234 18.3164 21.0234ZM18.3164 18.9141H11.6367C11.3455 18.9141 11.1094 18.678 11.1094 18.3867C11.1094 18.0955 11.3455 17.8594 11.6367 17.8594H18.3164C18.6076 17.8594 18.8438 18.0955 18.8438 18.3867C18.8438 18.678 18.6076 18.9141 18.3164 18.9141ZM18.3164 16.8047H11.6367C11.3455 16.8047 11.1094 16.5686 11.1094 16.2773C11.1094 15.9861 11.3455 15.75 11.6367 15.75H18.3164C18.6076 15.75 18.8438 15.9861 18.8438 16.2773C18.8438 16.5686 18.6076 16.8047 18.3164 16.8047Z" fill="#FC431E"/>
<path d="M26.4727 12.9375C26.1814 12.9375 25.9453 13.1736 25.9453 13.4648V13.6406H22.6055V22.4297H25.0664V18.5625H25.9453V19.793C25.9453 20.0842 26.1814 20.3203 26.4727 20.3203C26.7639 20.3203 27 20.0842 27 19.793V13.4648C27 13.1736 26.7639 12.9375 26.4727 12.9375ZM25.9453 17.5078H25.0664V14.6953H25.9453V17.5078Z" fill="#FC431E"/>
<path d="M22.6064 23.4844C22.6132 24.3501 22.855 25.1893 23.3089 25.9238V26.4727C23.3089 26.7639 23.545 27 23.8363 27C24.1275 27 24.3636 26.7639 24.3636 26.4727V25.9238C24.8175 25.1892 25.0594 24.3501 25.0661 23.4844H22.6064Z" fill="#FC431E"/>
<path d="M25.0664 12.5859V11.707C25.0664 11.0275 24.5155 10.4766 23.8359 10.4766C23.1564 10.4766 22.6055 11.0275 22.6055 11.707V12.5859H25.0664Z" fill="#FC431E"/>
</svg>
