<svg width="36" height="36" viewBox="0 0 36 36" fill="none" xmlns="http://www.w3.org/2000/svg">
<circle cx="18" cy="18" r="18" fill="#EAF0FB"/>
<path d="M23.6471 14.379H17.1529L15.8612 12.8437C15.8177 12.7914 15.7526 12.7621 15.6847 12.7643H10.4453C9.64535 12.7701 9 13.4202 9 14.2201V23.6631C9.00097 24.4658 9.65144 25.1162 10.4541 25.1172H23.6471C24.4497 25.1162 25.1002 24.4658 25.1012 23.6631V15.8331C25.1002 15.0304 24.4497 14.3799 23.6471 14.379Z" fill="#1C448E"/>
<path d="M25.5541 12.4976H19.0582L17.7664 10.9623C17.723 10.9101 17.6578 10.8808 17.5899 10.8829H12.3523C11.6265 10.8841 11.0127 11.4203 10.9141 12.1394H15.6911C15.9416 12.1388 16.1795 12.2493 16.3405 12.4412L17.4435 13.7523H23.6464C24.7937 13.7543 25.7233 14.6839 25.7252 15.8312V23.2217C26.4527 23.131 26.9988 22.513 26.9994 21.78V13.95C26.9975 13.1514 26.3526 12.5034 25.5541 12.4976Z" fill="#1C448E"/>
</svg>
