<svg width="12" height="24" viewBox="0 0 12 24" fill="none" xmlns="http://www.w3.org/2000/svg">
<path opacity="0.5" d="M9.962 5.74639V17.8044C9.962 18.9167 9.52013 19.9835 8.73361 20.77C7.94708 21.5565 6.88032 21.9984 5.768 21.9984C4.65568 21.9984 3.58892 21.5565 2.80239 20.77C2.01587 19.9835 1.574 18.9167 1.574 17.8044V4.69839C1.574 4.00326 1.85014 3.3366 2.34167 2.84507C2.83321 2.35353 3.49987 2.07739 4.195 2.07739C4.89013 2.07739 5.55679 2.35353 6.04833 2.84507C6.53986 3.3366 6.816 4.00326 6.816 4.69839V15.7044C6.816 15.9829 6.70538 16.2499 6.50846 16.4469C6.31155 16.6438 6.04448 16.7544 5.766 16.7544C5.48752 16.7544 5.22045 16.6438 5.02354 16.4469C4.82663 16.2499 4.716 15.9829 4.716 15.7044V5.74639H3.146V15.7044C3.146 16.3995 3.42214 17.0662 3.91367 17.5577C4.40521 18.0493 5.07187 18.3254 5.767 18.3254C6.46213 18.3254 7.1288 18.0493 7.62033 17.5577C8.11186 17.0662 8.388 16.3995 8.388 15.7044V4.69839C8.388 3.58608 7.94613 2.51932 7.15961 1.73279C6.37308 0.946261 5.30632 0.504395 4.194 0.504395C3.08168 0.504395 2.01492 0.946261 1.22839 1.73279C0.441867 2.51932 0 3.58608 0 4.69839V17.8044C0.0199671 19.3206 0.636295 20.768 1.71555 21.8331C2.79481 22.8982 4.25015 23.4955 5.7665 23.4955C7.28285 23.4955 8.73819 22.8982 9.81745 21.8331C10.8967 20.768 11.513 19.3206 11.533 17.8044V5.74639H9.962Z" fill="#253F66"/>
</svg>