<svg width="24" height="24" viewBox="0 0 24 24" fill="none" xmlns="http://www.w3.org/2000/svg">
	<path d="M16.5148 15.5184L7.47129 15.5184C6.63705 15.5184 5.83698 15.187 5.24708 14.5971C4.65719 14.0072 4.32579 13.2071 4.32579 12.3729C4.32579 11.5386 4.65719 10.7386 5.24708 10.1487C5.83698 9.55878 6.63705 9.22738 7.47129 9.22738L17.3008 9.22738C17.8221 9.22738 18.3221 9.43448 18.6908 9.80313C19.0594 10.1718 19.2665 10.6718 19.2665 11.1931C19.2665 11.7145 19.0594 12.2145 18.6908 12.5831C18.3221 12.9518 17.8221 13.1589 17.3008 13.1589L9.04629 13.1589C8.83743 13.1589 8.63713 13.0759 8.48944 12.9282C8.34176 12.7805 8.25879 12.5802 8.25879 12.3714C8.25879 12.1625 8.34176 11.9622 8.48944 11.8145C8.63713 11.6668 8.83743 11.5839 9.04629 11.5839L16.5148 11.5839L16.5148 10.4064L9.04629 10.4064C8.52494 10.4064 8.02494 10.6135 7.65629 10.9821C7.28764 11.3508 7.08054 11.8508 7.08054 12.3721C7.08054 12.8935 7.28764 13.3935 7.65629 13.7621C8.02494 14.1308 8.52494 14.3379 9.04629 14.3379L17.3008 14.3379C18.135 14.3379 18.9351 14.0065 19.525 13.4166C20.1149 12.8267 20.4463 12.0266 20.4463 11.1924C20.4463 10.3581 20.1149 9.55807 19.525 8.96817C18.9351 8.37828 18.135 8.04688 17.3008 8.04688L7.47129 8.04688C6.33413 8.06185 5.24861 8.5241 4.44976 9.33354C3.65091 10.143 3.20299 11.2345 3.20299 12.3717C3.20299 13.509 3.65091 14.6005 4.44976 15.41C5.24861 16.2194 6.33413 16.6816 7.47129 16.6966L16.5148 16.6966L16.5148 15.5184Z" fill="#04151F"/>
</svg>