<svg width="25" height="20" viewBox="0 0 25 20" fill="none" xmlns="http://www.w3.org/2000/svg">
<g opacity="0.5">
<path fill-rule="evenodd" clip-rule="evenodd" d="M20.823 16.1038V16.8298C20.823 16.9985 20.89 17.1604 21.0094 17.2797C21.1287 17.3991 21.2906 17.4661 21.4593 17.4661H1.46362C1.21708 17.4654 0.980854 17.3671 0.806525 17.1928C0.632196 17.0184 0.533935 16.7822 0.533203 16.5357V16.1038H20.823Z" fill="#F0D157"/>
<path fill-rule="evenodd" clip-rule="evenodd" d="M20.8228 16.1037H12.4805L20.8228 7.7605V16.1037Z" fill="#F0D157"/>
<path fill-rule="evenodd" clip-rule="evenodd" d="M22.0974 14.7126V16.8297C22.0911 16.9944 22.0213 17.1502 21.9026 17.2645C21.7838 17.3788 21.6255 17.4426 21.4606 17.4426C21.2958 17.4426 21.1374 17.3788 21.0187 17.2645C20.9 17.1502 20.8302 16.9944 20.8239 16.8297V16.1036H2.73804C2.49134 16.1029 2.25497 16.0045 2.08061 15.83C1.90626 15.6555 1.80811 15.419 1.80762 15.1723V7.35993C1.80811 7.11323 1.90626 6.87676 2.08061 6.70223C2.25497 6.52771 2.49134 6.42932 2.73804 6.42858H4.51101C4.94663 6.42858 5.21299 6.30835 5.47658 6.04569L7.37349 4.1497C7.66297 3.86207 7.86552 3.75201 8.35292 3.75294H21.0782C21.3477 3.75415 21.6057 3.86173 21.7962 4.05225C21.9868 4.24278 22.0944 4.50085 22.0956 4.77029V14.7126H22.0974Z" fill="#CF9737"/>
<path fill-rule="evenodd" clip-rule="evenodd" d="M3.11659 0.787005H19.1825C19.3847 0.787493 19.5785 0.86804 19.7215 1.01103C19.8645 1.15402 19.945 1.34781 19.9455 1.55002V13.5169C19.945 13.7191 19.8645 13.9129 19.7215 14.0559C19.5785 14.1989 19.3847 14.2794 19.1825 14.2799H3.11659C2.91453 14.2792 2.72097 14.1986 2.57819 14.0556C2.4354 13.9126 2.35498 13.719 2.35449 13.5169V1.54817C2.35498 1.34612 2.4354 1.15247 2.57819 1.0095C2.72097 0.866542 2.91453 0.785889 3.11659 0.785156V0.787005Z" fill="white"/>
<path fill-rule="evenodd" clip-rule="evenodd" d="M10.9195 4.90188H19.8907C20.1375 4.90261 20.374 5.00097 20.5485 5.17547C20.723 5.34997 20.8213 5.58644 20.8221 5.83322V16.8299C20.8221 16.9987 20.8891 17.1605 21.0084 17.2799C21.1278 17.3992 21.2896 17.4662 21.4584 17.4662H1.46362C1.21708 17.4655 0.980854 17.3672 0.806525 17.1929C0.632196 17.0186 0.533935 16.7824 0.533203 16.5358V3.24636C0.533203 2.97654 0.640388 2.71777 0.831179 2.52698C1.02197 2.33619 1.28074 2.229 1.55056 2.229H7.07666C7.56407 2.229 7.76661 2.33814 8.05609 2.62485L9.953 4.52176C10.2166 4.78442 10.483 4.90373 10.9186 4.90373L10.9195 4.90188Z" fill="#FFDE59"/>
<path fill-rule="evenodd" clip-rule="evenodd" d="M20.823 16.1037V16.8298C20.823 16.9985 20.89 17.1604 21.0094 17.2797C21.1287 17.399 21.2906 17.4661 21.4593 17.4661H1.46362C1.21708 17.4654 0.980854 17.3671 0.806525 17.1928C0.632196 17.0184 0.533935 16.7822 0.533203 16.5357V16.1037H12.4853L20.8276 7.7605V16.1037H20.823Z" fill="#F0D157"/>
<path fill-rule="evenodd" clip-rule="evenodd" d="M20.5489 11.248C21.3368 11.2479 22.107 11.4813 22.7622 11.9189C23.4174 12.3565 23.9281 12.9786 24.2298 13.7064C24.5314 14.4343 24.6104 15.2353 24.4568 16.008C24.3032 16.7808 23.9239 17.4907 23.3668 18.0478C22.8098 18.605 22.1 18.9845 21.3273 19.1383C20.5546 19.292 19.7536 19.2132 19.0256 18.9117C18.2977 18.6103 17.6755 18.0997 17.2378 17.4446C16.8001 16.7895 16.5664 16.0193 16.5664 15.2315C16.5664 14.1752 16.986 13.1621 17.7328 12.4151C18.4796 11.6681 19.4926 11.2483 20.5489 11.248Z" fill="#FC4E2C"/>
<path fill-rule="evenodd" clip-rule="evenodd" d="M20.5503 13.2109L21.1283 14.4077L22.4463 14.5881L21.4862 15.5074L21.7221 16.817L20.5503 16.1872L19.3785 16.817L19.6143 15.5074L18.6543 14.5881L19.9722 14.4077L20.5503 13.2109Z" fill="white"/>
</g>
</svg>