<svg width="19" height="5" viewBox="0 0 19 5" fill="none" xmlns="http://www.w3.org/2000/svg">
<path d="M2.7832 0C1.5457 0 0.533203 1.0125 0.533203 2.25C0.533203 3.4875 1.5457 4.5 2.7832 4.5C4.0207 4.5 5.0332 3.4875 5.0332 2.25C5.0332 1.0125 4.0207 0 2.7832 0ZM16.2832 0C15.0457 0 14.0332 1.0125 14.0332 2.25C14.0332 3.4875 15.0457 4.5 16.2832 4.5C17.5207 4.5 18.5332 3.4875 18.5332 2.25C18.5332 1.0125 17.5207 0 16.2832 0ZM9.5332 0C8.2957 0 7.2832 1.0125 7.2832 2.25C7.2832 3.4875 8.2957 4.5 9.5332 4.5C10.7707 4.5 11.7832 3.4875 11.7832 2.25C11.7832 1.0125 10.7707 0 9.5332 0Z" fill="#253F66"/>
</svg>