<svg width="84" height="41" viewBox="0 0 84 41" fill="none" xmlns="http://www.w3.org/2000/svg">
<path d="M-0.000297309 7.78565C-0.00545796 7.7534 -0.00300853 7.72039 0.0068555 7.68925C0.0167195 7.65811 0.0337251 7.62971 0.0565151 7.60631C0.0793051 7.58291 0.107249 7.56517 0.138116 7.55449C0.168983 7.54381 0.201919 7.54049 0.234296 7.5448H6.07723C6.10971 7.54062 6.14273 7.544 6.17369 7.55468C6.20466 7.56535 6.23274 7.58304 6.25574 7.60635C6.27875 7.62966 6.29606 7.65797 6.30633 7.68907C6.3166 7.72017 6.31955 7.75322 6.31495 7.78565V9.14942C6.31955 9.18185 6.3166 9.21491 6.30633 9.24601C6.29606 9.27711 6.27875 9.30542 6.25574 9.32873C6.23274 9.35204 6.20466 9.36972 6.17369 9.3804C6.14273 9.39107 6.10971 9.39445 6.07723 9.39027H4.16608V15.3052C4.17039 15.3376 4.16707 15.3705 4.15639 15.4014C4.14571 15.4322 4.12796 15.4602 4.10457 15.483C4.08117 15.5057 4.05277 15.5227 4.02163 15.5326C3.99049 15.5425 3.95748 15.5449 3.92523 15.5398H2.36127C2.32937 15.5445 2.2968 15.5417 2.26617 15.5316C2.23554 15.5215 2.2077 15.5044 2.1849 15.4816C2.16209 15.4587 2.14494 15.4309 2.13483 15.4003C2.12472 15.3696 2.12193 15.3371 2.12668 15.3052V9.38402H0.234296C0.202518 9.38811 0.170225 9.38485 0.139901 9.37451C0.109577 9.36416 0.0820277 9.34701 0.0593719 9.32435C0.0367162 9.30169 0.0195567 9.27414 0.00921265 9.24382C-0.00113144 9.2135 -0.00438479 9.1812 -0.000297309 9.14942V7.78565Z" fill="#253F66"/>
<path d="M9.23603 7.78565C9.23087 7.7534 9.23332 7.72039 9.24318 7.68925C9.25305 7.65811 9.27005 7.62971 9.29284 7.60631C9.31563 7.58291 9.34358 7.56517 9.37444 7.55449C9.40531 7.54381 9.43825 7.54049 9.47062 7.5448H11.0784C11.1109 7.54062 11.1439 7.544 11.1748 7.55468C11.2058 7.56535 11.2339 7.58304 11.2569 7.60635C11.2799 7.62966 11.2972 7.65797 11.3075 7.68907C11.3177 7.72017 11.3207 7.75322 11.3161 7.78565V15.2927C11.3203 15.3247 11.317 15.3573 11.3065 15.3879C11.296 15.4185 11.2785 15.4463 11.2555 15.469C11.2325 15.4917 11.2045 15.5088 11.1738 15.5189C11.143 15.529 11.1104 15.5319 11.0784 15.5273H9.47062C9.43872 15.532 9.40615 15.5292 9.37552 15.5191C9.34489 15.509 9.31705 15.4918 9.29425 15.469C9.27144 15.4462 9.25429 15.4184 9.24418 15.3878C9.23407 15.3571 9.23128 15.3246 9.23603 15.2927V7.78565Z" fill="#253F66"/>
<path d="M14.238 7.78565C14.2328 7.7534 14.2353 7.72039 14.2451 7.68925C14.255 7.65811 14.272 7.62971 14.2948 7.60631C14.3176 7.58291 14.3455 7.56517 14.3764 7.55449C14.4073 7.54381 14.4402 7.54049 14.4726 7.5448H20.3311C20.3635 7.54049 20.3965 7.54381 20.4273 7.55449C20.4582 7.56517 20.4861 7.58291 20.5089 7.60631C20.5317 7.62971 20.5487 7.65811 20.5586 7.68925C20.5685 7.72039 20.5709 7.7534 20.5657 7.78565V9.14942C20.5698 9.1812 20.5666 9.2135 20.5562 9.24382C20.5459 9.27414 20.5287 9.30169 20.5061 9.32435C20.4834 9.34701 20.4559 9.36416 20.4255 9.37451C20.3952 9.38485 20.3629 9.38811 20.3311 9.38402H18.4012V15.3052C18.4055 15.3376 18.4022 15.3705 18.3915 15.4014C18.3809 15.4322 18.3631 15.4602 18.3397 15.483C18.3163 15.5057 18.2879 15.5227 18.2568 15.5326C18.2256 15.5425 18.1926 15.5449 18.1604 15.5398H16.5964C16.5645 15.5445 16.5319 15.5417 16.5013 15.5316C16.4707 15.5215 16.4429 15.5044 16.42 15.4816C16.3972 15.4587 16.3801 15.4309 16.37 15.4003C16.3599 15.3696 16.3571 15.3371 16.3618 15.3052V9.38402H14.4726C14.4402 9.38833 14.4073 9.38501 14.3764 9.37433C14.3455 9.36365 14.3176 9.34591 14.2948 9.32251C14.272 9.29911 14.255 9.27071 14.2451 9.23957C14.2353 9.20843 14.2328 9.17542 14.238 9.14317V7.78565Z" fill="#253F66"/>
<path d="M24.3978 7.78544C24.4185 7.71423 24.4624 7.65193 24.5224 7.60834C24.5824 7.56474 24.6552 7.54232 24.7293 7.54459H26.0462C26.1171 7.54639 26.1856 7.5707 26.2419 7.61399C26.2981 7.65728 26.3391 7.71732 26.359 7.78544L29.2961 15.2924C29.3586 15.4488 29.3086 15.527 29.1459 15.527H27.5601C27.4891 15.5293 27.4194 15.5073 27.3625 15.4646C27.3057 15.422 27.265 15.3613 27.2473 15.2924L26.872 14.2383H23.9317L23.5689 15.2924C23.5511 15.3613 23.5105 15.422 23.4537 15.4646C23.3968 15.5073 23.3271 15.5293 23.2561 15.527H21.6327C21.4742 15.527 21.4242 15.4488 21.4826 15.2924L24.3978 7.78544ZM25.3737 10.0719L24.5323 12.5117H26.2464L25.3737 10.0719Z" fill="#253F66"/>
<path d="M33.9815 10.6348V15.2954C33.9815 15.4518 33.8939 15.53 33.7156 15.53H32.2173C32.1854 15.5348 32.1528 15.532 32.1222 15.5219C32.0916 15.5117 32.0637 15.4946 32.0409 15.4718C32.0181 15.449 32.001 15.4211 31.9909 15.3905C31.9808 15.3599 31.978 15.3273 31.9827 15.2954V7.7884C31.9823 7.72742 32.0021 7.668 32.039 7.61949C32.0616 7.59509 32.0893 7.57598 32.1201 7.56354C32.1509 7.5511 32.1841 7.54564 32.2173 7.54755H33.9596C34.0365 7.5468 34.1119 7.56973 34.1754 7.61324C34.2427 7.65889 34.2993 7.71866 34.3412 7.7884L37.0405 12.1675V7.7884C37.0401 7.72742 37.0599 7.668 37.0969 7.61949C37.1202 7.59441 37.149 7.57492 37.1809 7.56247C37.2129 7.55001 37.2472 7.54492 37.2814 7.54755H38.7859C38.8496 7.55106 38.9108 7.57398 38.9611 7.61324C38.9892 7.63294 39.0122 7.65916 39.028 7.68967C39.0438 7.72017 39.0519 7.75405 39.0518 7.7884V15.2954C39.0518 15.4518 38.9642 15.53 38.7859 15.53H37.222C37.1421 15.53 37.0637 15.5081 36.9953 15.4668C36.927 15.4254 36.8712 15.3662 36.8341 15.2954L33.9815 10.6348Z" fill="#253F66"/>
<path d="M-0.000297309 17.8073C-0.000297309 17.6446 0.0779004 17.5633 0.234296 17.5633H6.07723C6.11002 17.559 6.14335 17.5624 6.17459 17.5733C6.20583 17.5841 6.23411 17.6021 6.25718 17.6258C6.28026 17.6495 6.29749 17.6782 6.30752 17.7097C6.31755 17.7412 6.32009 17.7746 6.31495 17.8073V19.1679C6.31955 19.2004 6.3166 19.2334 6.30633 19.2645C6.29606 19.2956 6.27875 19.3239 6.25574 19.3472C6.23274 19.3706 6.20466 19.3882 6.17369 19.3989C6.14273 19.4096 6.10971 19.413 6.07723 19.4088H4.16608V25.3362C4.17039 25.3686 4.16707 25.4015 4.15639 25.4324C4.14571 25.4632 4.12796 25.4912 4.10457 25.514C4.08117 25.5368 4.05277 25.5538 4.02163 25.5636C3.99049 25.5735 3.95748 25.576 3.92523 25.5708H2.36127C2.33009 25.574 2.2986 25.57 2.26919 25.5592C2.23978 25.5484 2.21321 25.531 2.19151 25.5084C2.1698 25.4858 2.15353 25.4585 2.14392 25.4287C2.13432 25.3989 2.13163 25.3672 2.13606 25.3362V19.4088H0.234296C0.201919 19.4131 0.168983 19.4098 0.138116 19.3991C0.107249 19.3884 0.0793051 19.3707 0.0565151 19.3473C0.0337251 19.3239 0.0167195 19.2955 0.0068555 19.2643C-0.00300853 19.2332 -0.00545796 19.2002 -0.000297309 19.1679V17.8073Z" fill="#253F66"/>
<path d="M8.78886 17.8075C8.78837 17.7475 8.80822 17.689 8.84516 17.6417C8.86499 17.6153 8.89113 17.5943 8.92119 17.5807C8.95125 17.567 8.98427 17.5611 9.0172 17.5635H12.5893C12.9497 17.5593 13.3062 17.6385 13.6309 17.795C13.935 17.9442 14.2079 18.1502 14.4347 18.4018C14.6606 18.6537 14.8377 18.9454 14.9571 19.262C15.0782 19.5775 15.1407 19.9125 15.1416 20.2504C15.1409 20.4626 15.1082 20.6735 15.0447 20.876C14.981 21.0868 14.8906 21.2887 14.7757 21.4765C14.6575 21.669 14.5191 21.8483 14.3628 22.0114C14.2012 22.1758 14.0218 22.3216 13.8279 22.4462L15.37 25.3364C15.3831 25.3604 15.39 25.3873 15.39 25.4146C15.39 25.4419 15.3831 25.4688 15.37 25.4928C15.3566 25.5195 15.3353 25.5413 15.3089 25.5553C15.2826 25.5693 15.2526 25.5748 15.223 25.571H13.2837C13.2231 25.5762 13.1627 25.5584 13.1148 25.5209C13.0631 25.4711 13.0216 25.4116 12.9928 25.3458L11.7197 22.9123H10.8627V25.3364C10.8674 25.3683 10.8646 25.4009 10.8545 25.4315C10.8444 25.4621 10.8273 25.49 10.8044 25.5128C10.7816 25.5356 10.7538 25.5527 10.7232 25.5628C10.6925 25.573 10.66 25.5757 10.6281 25.571H9.0172C8.98564 25.5753 8.9535 25.5722 8.92337 25.5619C8.89324 25.5515 8.86597 25.5342 8.84375 25.5114C8.82153 25.4886 8.80499 25.4608 8.79545 25.4304C8.78592 25.4 8.78366 25.3678 8.78886 25.3364V17.8075ZM10.8627 19.2307V21.1825H12.0575C12.1915 21.1842 12.3242 21.1553 12.4454 21.0981C12.563 21.0463 12.6693 20.9719 12.7582 20.8791C12.8427 20.7879 12.9095 20.6819 12.9552 20.5663C13.0012 20.4531 13.0245 20.3319 13.024 20.2097C13.0241 20.0886 13.0008 19.9686 12.9552 19.8563C12.9082 19.7406 12.8404 19.6346 12.755 19.5435C12.6662 19.449 12.56 19.3726 12.4423 19.3183C12.3217 19.2589 12.1888 19.2288 12.0544 19.2307H10.8627Z" fill="#253F66"/>
<path d="M19.5831 22.3708C19.5823 22.6006 19.6236 22.8285 19.7051 23.0433C19.7666 23.2145 19.8661 23.3696 19.996 23.4969C20.1169 23.6115 20.2608 23.6989 20.4182 23.7534C20.5774 23.8075 20.7444 23.8349 20.9125 23.8347C21.0871 23.8364 21.2604 23.8035 21.4223 23.7377C21.5772 23.6753 21.7169 23.5803 21.8321 23.4594C21.956 23.3273 22.0527 23.1721 22.1167 23.0027C22.1905 22.8025 22.2266 22.5904 22.2231 22.3771V17.8072C22.223 17.7441 22.2477 17.6834 22.2919 17.6383C22.3141 17.6133 22.3417 17.5936 22.3725 17.5806C22.4034 17.5677 22.4367 17.5617 22.4702 17.5632H24.0341C24.0705 17.5604 24.107 17.5657 24.141 17.5787C24.1751 17.5917 24.2059 17.612 24.2312 17.6383C24.2745 17.6837 24.2981 17.7444 24.2969 17.8072V22.3427C24.3113 22.8772 24.2177 23.4092 24.0216 23.9067C23.8583 24.3045 23.6019 24.6574 23.274 24.9357C22.9645 25.2028 22.6005 25.3991 22.2074 25.5113C21.3593 25.7406 20.4656 25.7406 19.6175 25.5113C19.2192 25.4013 18.8491 25.2072 18.5321 24.942C18.2071 24.6592 17.9523 24.3048 17.7877 23.9067C17.5894 23.4097 17.4946 22.8775 17.5093 22.3427V17.8072C17.5073 17.7455 17.5285 17.6852 17.5687 17.6383C17.5865 17.6146 17.6097 17.5954 17.6363 17.5823C17.663 17.5693 17.6923 17.5627 17.722 17.5632H19.3641C19.4642 17.5632 19.5268 17.5883 19.5549 17.6352C19.5848 17.6874 19.5989 17.7471 19.5956 17.8072L19.5831 22.3708Z" fill="#253F66"/>
<path d="M26.7272 24.1882C26.7002 24.1538 26.68 24.1145 26.6678 24.0725C26.6537 24.0331 26.6537 23.99 26.6678 23.9505C26.6848 23.9014 26.7139 23.8573 26.7522 23.8223L27.6906 22.9371C27.711 22.9137 27.7359 22.8947 27.7639 22.8812C27.7918 22.8678 27.8223 22.8602 27.8533 22.8589C27.8969 22.8589 27.9399 22.8696 27.9784 22.8902C28.024 22.9161 28.0669 22.9465 28.1066 22.9809C28.2067 23.0622 28.3193 23.156 28.4444 23.253C28.5716 23.3536 28.7053 23.4456 28.8448 23.5282C28.9881 23.6119 29.1389 23.6821 29.2952 23.7378C29.4496 23.7939 29.6127 23.8224 29.7769 23.8223C29.9286 23.828 30.08 23.8069 30.2242 23.7597C30.3274 23.7278 30.4217 23.672 30.4995 23.5971C30.5669 23.5324 30.6146 23.45 30.6371 23.3593C30.6625 23.2655 30.6751 23.1687 30.6746 23.0716C30.6776 22.9557 30.6349 22.8434 30.5558 22.7588C30.4721 22.6663 30.3738 22.5881 30.2649 22.5273C30.1478 22.461 30.0254 22.4045 29.8989 22.3584C29.7738 22.3084 29.6612 22.2677 29.5642 22.2333C29.1709 22.1023 28.789 21.9391 28.4225 21.7453C28.1211 21.5915 27.8431 21.3956 27.5968 21.1635C27.3848 20.9626 27.2138 20.7226 27.0932 20.4566C26.9769 20.186 26.9183 19.8941 26.9211 19.5996C26.9172 19.283 26.9914 18.9704 27.137 18.6894C27.2807 18.4155 27.4837 18.1772 27.7313 17.9918C28.0092 17.79 28.3205 17.6386 28.6509 17.5445C29.0373 17.4344 29.4377 17.3806 29.8395 17.385C30.0864 17.3855 30.3326 17.4107 30.5745 17.4601C30.8206 17.5092 31.0615 17.5815 31.294 17.6759C31.5183 17.7669 31.7339 17.8778 31.9383 18.0075C32.1251 18.1338 32.2944 18.2842 32.4419 18.4548C32.5085 18.5205 32.5485 18.6085 32.5545 18.7019C32.5453 18.7977 32.4994 18.8863 32.4263 18.949L31.5911 19.8185C31.5696 19.8435 31.5433 19.8638 31.5137 19.8784C31.4842 19.8929 31.452 19.9013 31.4191 19.903C31.3689 19.9025 31.3199 19.8873 31.2783 19.8592C31.2281 19.8295 31.181 19.7949 31.1376 19.756C30.9573 19.5898 30.7552 19.4488 30.537 19.3368C30.3176 19.2281 30.0749 19.1744 29.8301 19.1804C29.7253 19.1786 29.6205 19.187 29.5173 19.2055C29.4219 19.219 29.3297 19.2497 29.2452 19.2962C29.167 19.3347 29.0994 19.3916 29.0481 19.462C28.9964 19.5373 28.9701 19.6271 28.9731 19.7184C28.9707 19.8121 29.0005 19.9037 29.0575 19.9781C29.1246 20.0613 29.2075 20.1304 29.3015 20.1814C29.4285 20.2521 29.5614 20.3118 29.6987 20.3597C29.852 20.4191 30.0115 20.4785 30.2211 20.5411C30.6027 20.6693 30.953 20.8007 31.2689 20.9415C31.5614 21.0655 31.8351 21.2298 32.0822 21.4294C32.304 21.6154 32.4832 21.8468 32.6077 22.1082C32.7387 22.4033 32.8028 22.7237 32.7954 23.0465C32.7999 23.417 32.7208 23.7838 32.5639 24.1194C32.412 24.4367 32.192 24.7165 31.9195 24.9389C31.6373 25.1753 31.3139 25.3577 30.9655 25.4769C30.5705 25.598 30.1588 25.6561 29.7456 25.649C29.4668 25.6482 29.1893 25.6114 28.9199 25.5395C28.3797 25.3929 27.8716 25.1468 27.4216 24.8138C27.2073 24.6543 27.0054 24.4787 26.8179 24.2883L26.7272 24.1882Z" fill="#253F66"/>
<path d="M34.845 17.8073C34.845 17.6446 34.9232 17.5633 35.0796 17.5633H40.9226C40.9553 17.559 40.9887 17.5624 41.0199 17.5733C41.0512 17.5841 41.0794 17.6021 41.1025 17.6258C41.1256 17.6495 41.1428 17.6782 41.1528 17.7097C41.1629 17.7412 41.1654 17.7746 41.1603 17.8073V19.1679C41.1649 19.2004 41.1619 19.2334 41.1517 19.2645C41.1414 19.2956 41.1241 19.3239 41.1011 19.3472C41.0781 19.3706 41.05 19.3882 41.019 19.3989C40.9881 19.4096 40.955 19.413 40.9226 19.4088H39.0114V25.3362C39.0157 25.3686 39.0124 25.4015 39.0017 25.4324C38.991 25.4632 38.9733 25.4912 38.9499 25.514C38.9265 25.5368 38.8981 25.5538 38.867 25.5636C38.8358 25.5735 38.8028 25.576 38.7706 25.5708H37.2066C37.1747 25.5755 37.1421 25.5728 37.1115 25.5626C37.0809 25.5525 37.053 25.5354 37.0302 25.5126C37.0074 25.4898 36.9903 25.4619 36.9802 25.4313C36.97 25.4007 36.9673 25.3681 36.972 25.3362V19.4088H35.0702C35.0379 19.4131 35.0049 19.4098 34.9741 19.3991C34.9432 19.3884 34.9152 19.3707 34.8925 19.3473C34.8697 19.3239 34.8527 19.2955 34.8428 19.2643C34.8329 19.2332 34.8305 19.2002 34.8356 19.1679L34.845 17.8073Z" fill="#253F66"/>
<path d="M2.28922 27.6633C2.28449 27.6338 2.28678 27.6035 2.29591 27.575C2.30503 27.5465 2.32073 27.5206 2.34174 27.4992C2.36275 27.4779 2.38848 27.4619 2.41685 27.4523C2.44521 27.4428 2.47543 27.4401 2.50504 27.4444H5.76745C6.04819 27.4419 6.32632 27.4983 6.58384 27.6101C6.8341 27.7168 7.06139 27.8708 7.25321 28.0637C7.65241 28.4615 7.87741 29.0015 7.87879 29.5651C7.87986 29.7984 7.84071 30.0301 7.76306 30.2501C7.6954 30.4578 7.5893 30.6509 7.45027 30.8194C7.67882 31.0396 7.86258 31.3019 7.9914 31.592C8.12992 31.8854 8.2015 32.2059 8.20097 32.5304C8.20241 32.8204 8.14494 33.1077 8.03206 33.3749C7.92116 33.6407 7.76328 33.8844 7.566 34.0943C7.36961 34.2953 7.13726 34.4576 6.88099 34.5729C6.62195 34.6916 6.34016 34.7524 6.05522 34.7512H2.50192C2.4726 34.7554 2.44271 34.7527 2.41462 34.7433C2.38653 34.7339 2.361 34.7181 2.34006 34.6972C2.31913 34.6763 2.30335 34.6507 2.29398 34.6227C2.28461 34.5946 2.28191 34.5647 2.28609 34.5354L2.28922 27.6633ZM4.19099 28.9145V30.3377H5.23571C5.34248 30.3411 5.44885 30.323 5.5485 30.2845C5.63708 30.2525 5.71804 30.2025 5.78622 30.1375C5.8528 30.0736 5.90597 29.997 5.94262 29.9123C5.98044 29.8222 5.99959 29.7254 5.99892 29.6277C6.00074 29.5341 5.98337 29.4411 5.94786 29.3545C5.91235 29.2679 5.85947 29.1894 5.79248 29.1241C5.72524 29.0579 5.64549 29.0058 5.55788 28.9708C5.4586 28.9307 5.35212 28.9116 5.24509 28.9145H4.19099ZM4.19099 31.6608V33.3061H5.50784C5.60788 33.3065 5.70656 33.2829 5.7956 33.2373C5.88651 33.1937 5.96826 33.1332 6.03645 33.059C6.10722 32.9828 6.16436 32.8949 6.20536 32.7994C6.28674 32.5988 6.28674 32.3744 6.20536 32.1738C6.16794 32.0782 6.11511 31.9895 6.04897 31.911C5.98072 31.8323 5.89787 31.7675 5.80499 31.7202C5.70905 31.6684 5.60122 31.6425 5.4922 31.6452L4.19099 31.6608Z" fill="#253F66"/>
<path d="M13.9975 27.6636C14.0181 27.5977 14.06 27.5405 14.1166 27.5009C14.1732 27.4613 14.2413 27.4415 14.3103 27.4447H15.5145C15.5835 27.4415 15.6516 27.4613 15.7082 27.5009C15.7648 27.5405 15.8066 27.5977 15.8273 27.6636L18.511 34.545C18.5705 34.6889 18.511 34.7609 18.3734 34.7609H16.8908C16.8244 34.7644 16.7588 34.7448 16.7052 34.7055C16.6516 34.6661 16.6133 34.6094 16.5968 34.545L16.2652 33.5723H13.5627L13.2311 34.5357C13.214 34.6003 13.175 34.6571 13.1209 34.6964C13.0668 34.7357 13.0008 34.7552 12.934 34.7515H11.467C11.32 34.7515 11.2762 34.6795 11.3294 34.5357L13.9975 27.6636ZM14.892 29.7531L14.1163 31.9895H15.6803L14.892 29.7531Z" fill="#253F66"/>
<path d="M23.9499 30.2783V34.5354C23.9499 34.6793 23.8686 34.7513 23.7091 34.7513H22.3359C22.3066 34.7554 22.2767 34.7527 22.2486 34.7434C22.2205 34.734 22.195 34.7182 22.174 34.6973C22.1531 34.6763 22.1373 34.6508 22.128 34.6227C22.1186 34.5946 22.1159 34.5647 22.1201 34.5354V27.654C22.12 27.5984 22.1388 27.5444 22.1732 27.5007C22.1936 27.4782 22.2188 27.4605 22.247 27.4491C22.2752 27.4378 22.3056 27.4329 22.3359 27.4351H23.928C23.9977 27.4345 24.0662 27.454 24.1251 27.4914C24.186 27.5353 24.238 27.5905 24.2783 27.654L26.7431 31.6421V27.6634C26.7415 27.6075 26.7604 27.553 26.7963 27.5101C26.817 27.4871 26.8427 27.4692 26.8715 27.4578C26.9002 27.4464 26.9312 27.4418 26.9621 27.4444H28.329C28.3873 27.4458 28.4435 27.4667 28.4885 27.5039C28.5145 27.5214 28.5356 27.5452 28.5498 27.5731C28.564 27.601 28.5709 27.6321 28.5698 27.6634V34.5448C28.5698 34.6887 28.4916 34.7606 28.329 34.7606H26.8995C26.8266 34.76 26.7552 34.7395 26.693 34.7015C26.6308 34.6635 26.58 34.6094 26.5461 34.5448L23.9499 30.2783Z" fill="#253F66"/>
<path d="M36.4778 30.56L39.1178 34.5199C39.138 34.5421 39.1532 34.5684 39.1624 34.597C39.1716 34.6256 39.1745 34.6559 39.1709 34.6857C39.1709 34.7295 39.1178 34.7514 39.0521 34.7514H37.1753C37.1124 34.7549 37.0507 34.7335 37.0033 34.692C36.9506 34.6489 36.907 34.5957 36.8751 34.5356L35.2611 32.0332L34.5385 32.9091V34.5387C34.5427 34.568 34.54 34.5979 34.5306 34.626C34.5213 34.6541 34.5055 34.6796 34.4845 34.7006C34.4636 34.7215 34.4381 34.7373 34.41 34.7466C34.3819 34.756 34.352 34.7587 34.3227 34.7545H32.8526C32.8236 34.7583 32.7941 34.7553 32.7666 34.7457C32.739 34.736 32.714 34.7201 32.6937 34.6992C32.6733 34.6782 32.6581 34.6528 32.6493 34.6249C32.6405 34.5971 32.6384 34.5676 32.643 34.5387V27.6573C32.6398 27.5978 32.66 27.5394 32.6993 27.4946C32.7197 27.4753 32.7438 27.4604 32.7701 27.4507C32.7965 27.441 32.8245 27.4368 32.8526 27.4383H34.3008C34.3246 27.4384 34.3481 27.4438 34.3696 27.454C34.3975 27.4638 34.4238 27.4775 34.4478 27.4946C34.4741 27.5116 34.4965 27.534 34.5135 27.5603C34.5302 27.5899 34.5388 27.6233 34.5385 27.6573V30.3536L36.653 27.601C36.6949 27.5391 36.7535 27.4903 36.8219 27.4602C36.8862 27.4436 36.9525 27.4363 37.0189 27.4383H38.7862C38.8644 27.4383 38.9051 27.4634 38.9051 27.5165C38.9033 27.5726 38.8811 27.626 38.8425 27.6667L36.4778 30.56Z" fill="#253F66"/>
<path d="M81.6628 4.67008H49.8019C49.4881 4.68157 49.1752 4.62968 48.8818 4.51751C48.5885 4.40534 48.3208 4.23519 48.0947 4.01723C47.8687 3.79928 47.6888 3.53798 47.566 3.24896C47.4432 2.95994 47.3799 2.64913 47.3799 2.33509C47.3799 2.02105 47.4432 1.71024 47.566 1.42122C47.6888 1.1322 47.8687 0.870905 48.0947 0.652948C48.3208 0.43499 48.5885 0.264843 48.8818 0.152673C49.1752 0.0405025 49.4881 -0.0113889 49.8019 9.92039e-05H81.6628C81.9766 -0.0113889 82.2895 0.0405025 82.5828 0.152673C82.8762 0.264843 83.1439 0.43499 83.3699 0.652948C83.596 0.870905 83.7758 1.1322 83.8987 1.42122C84.0215 1.71024 84.0848 2.02105 84.0848 2.33509C84.0848 2.64913 84.0215 2.95994 83.8987 3.24896C83.7758 3.53798 83.596 3.79928 83.3699 4.01723C83.1439 4.23519 82.8762 4.40534 82.5828 4.51751C82.2895 4.62968 81.9766 4.68157 81.6628 4.67008Z" fill="#FF5C39"/>
<path d="M80.2682 10.0409L67.9005 38.9522C67.6574 39.5205 67.1987 39.9691 66.6252 40.1996C66.0517 40.43 65.4101 40.4235 64.8414 40.1815C64.5597 40.0615 64.3045 39.8871 64.0903 39.6683C63.876 39.4496 63.707 39.1908 63.5928 38.9067C63.4787 38.6226 63.4216 38.3188 63.4249 38.0126C63.4282 37.7065 63.4919 37.404 63.6121 37.1224L75.9799 8.21103C76.0999 7.92938 76.2743 7.67414 76.493 7.4599C76.7118 7.24567 76.9706 7.07664 77.2547 6.96248C77.5388 6.84832 77.8426 6.79126 78.1487 6.79457C78.4549 6.79788 78.7574 6.86149 79.039 6.98176C79.3206 7.10181 79.5759 7.27619 79.7901 7.49493C80.0043 7.71367 80.1734 7.97248 80.2875 8.25658C80.4017 8.54068 80.4587 8.84448 80.4554 9.15064C80.4521 9.4568 80.3885 9.7593 80.2682 10.0409Z" fill="#FF5C39"/>
<path d="M71.5381 10.0406L63.4962 28.8363C63.3765 29.1182 63.2023 29.3737 62.9836 29.5882C62.7649 29.8026 62.5061 29.9718 62.2219 30.086C61.9377 30.2002 61.6337 30.2572 61.3274 30.2537C61.0212 30.2502 60.7186 30.1862 60.4371 30.0655C59.8688 29.8224 59.4202 29.3638 59.1898 28.7902C58.9593 28.2167 58.9658 27.5752 59.2078 27.0064L67.2497 8.20762C67.3694 7.92569 67.5436 7.67017 67.7623 7.45571C67.981 7.24125 68.2398 7.07206 68.524 6.95786C68.8082 6.84365 69.1122 6.78668 69.4184 6.79019C69.7247 6.79371 70.0273 6.85765 70.3088 6.97835C70.8771 7.22146 71.3257 7.68012 71.5561 8.25365C71.7866 8.82718 71.7801 9.46872 71.5381 10.0375" fill="#253F66"/>
<path d="M62.8704 10.0406L59.1544 18.7674C59.0364 19.051 58.8635 19.3085 58.6457 19.525C58.4278 19.7416 58.1693 19.9129 57.885 20.0292C57.6007 20.1455 57.2963 20.2044 56.9891 20.2026C56.682 20.2008 56.3782 20.1382 56.0953 20.0186C55.8134 19.8989 55.5579 19.7247 55.3434 19.506C55.1289 19.2874 54.9598 19.0285 54.8456 18.7443C54.7313 18.4601 54.6744 18.1561 54.6779 17.8499C54.6814 17.5436 54.7453 17.241 54.866 16.9595L58.5726 8.22323C58.8122 7.65469 59.2675 7.20437 59.8386 6.971C60.4097 6.73763 61.05 6.74026 61.6192 6.97832C61.9029 7.09663 62.1604 7.26982 62.377 7.48796C62.5936 7.70609 62.7649 7.96487 62.8812 8.24942C62.9974 8.53397 63.0563 8.83868 63.0545 9.14606C63.0526 9.45344 62.99 9.75743 62.8704 10.0406Z" fill="#00884F"/>
</svg>
