<svg width="24" height="24" viewBox="0 0 24 24" fill="none" xmlns="http://www.w3.org/2000/svg">
<g opacity="0.5">
<path d="M18.8 8.4H10C9.33825 8.4 8.8 8.93825 8.8 9.6V10H9.6V9.6C9.6 9.379 9.779 9.2 10 9.2H18.8C19.021 9.2 19.2 9.379 19.2 9.6V15.2C19.2 15.421 19.021 15.6 18.8 15.6H14.4V16.4H18.8C19.4618 16.4 20 15.8617 20 15.2V9.6C20 8.93825 19.4618 8.4 18.8 8.4ZM6.4 7.2C6.4 6.979 6.579 6.8 6.8 6.8H14C14.221 6.8 14.4 6.979 14.4 7.2V7.6H15.2V7.2C15.2 6.53825 14.6618 6 14 6H6.8C6.13825 6 5.6 6.53825 5.6 7.2V10H6.4V7.2ZM18 12.4C18.221 12.4 18.4 12.221 18.4 12V10.4C18.4 10.179 18.221 10 18 10H16.4C16.179 10 16 10.179 16 10.4V12C16 12.221 16.179 12.4 16.4 12.4H18ZM16.8 10.8H17.6V11.6H16.8V10.8ZM12.4 10.8H5.2C4.53825 10.8 4 11.3382 4 12V17.6C4 18.2618 4.53825 18.8 5.2 18.8H12.4C13.0618 18.8 13.6 18.2618 13.6 17.6V12C13.6 11.3382 13.0618 10.8 12.4 10.8ZM12.8 17.6C12.8 17.821 12.621 18 12.4 18H5.2C4.979 18 4.8 17.821 4.8 17.6V13.84C5.12 14.08 5.6 14.48 7.2 15.6C7.52 15.84 8.16 16.4 8.8 16.4C9.44 16.4 10.08 15.84 10.4 15.6C12 14.48 12.48 14.08 12.8 13.84V17.6ZM12.8 12.88C12.16 13.36 12.24 13.36 9.92 15.04C9.68 15.12 9.2 15.6 8.8 15.6C8.4 15.6 7.92 15.12 7.68 14.96C5.36 13.28 5.44 13.28 4.8 12.8V12C4.8 11.779 4.979 11.6 5.2 11.6H12.4C12.621 11.6 12.8 11.779 12.8 12V12.88Z" fill="#253F66"/>
</g>
</svg>