<svg width="18" height="18" viewBox="0 0 18 18" fill="none" xmlns="http://www.w3.org/2000/svg">
<path d="M17.7899 7.67889L9.40635 0.330965C9.17373 0.127146 8.82621 0.127146 8.59364 0.330965L0.210108 7.67889C-0.0458856 7.90327 -0.0715294 8.29276 0.152853 8.54886C0.377236 8.8048 0.766775 8.83049 1.02277 8.60606L1.6719 8.03716V17.2055C1.6719 17.5459 1.94787 17.8219 2.28834 17.8219H6.96008H11.0399H15.7116C16.0521 17.8219 16.328 17.5459 16.328 17.2055V8.03721L16.9772 8.60616C17.0942 8.70864 17.2391 8.75904 17.3832 8.75904C17.5547 8.75904 17.7252 8.68797 17.847 8.5489C18.0716 8.29276 18.0459 7.90332 17.7899 7.67889ZM7.57652 16.5891V11.511H10.4234V16.5891L7.57652 16.5891ZM15.0953 6.96136V16.5891H11.6564V10.8946C11.6564 10.5541 11.3804 10.2781 11.04 10.2781H6.96018C6.61976 10.2781 6.34375 10.5541 6.34375 10.8946V16.5891H2.90482V6.96136C2.90482 6.95978 2.90462 6.9583 2.90462 6.95677L9 1.61424L15.0955 6.95672C15.0955 6.95835 15.0953 6.95978 15.0953 6.96136Z" fill="white"/>
<path d="M7.6192 5.9542C7.6192 6.29467 7.89517 6.57064 8.23564 6.57064H9.76439C10.1048 6.57064 10.3808 6.29467 10.3808 5.9542C10.3808 5.61373 10.1048 5.33777 9.76439 5.33777H8.23564C7.89522 5.33777 7.6192 5.61373 7.6192 5.9542Z" fill="white"/>
</svg>
