<svg width="20" height="20" viewBox="0 0 20 20" fill="none" xmlns="http://www.w3.org/2000/svg">
<path d="M16.6435 10.8765L16.6102 11.1546L16.8299 11.3283L18.8199 12.9012L16.9159 16.1974L14.5545 15.2481L14.292 15.1426L14.0664 15.3132C13.6031 15.6635 13.1005 15.9641 12.559 16.1851L12.2932 16.2936L12.2529 16.578L11.896 19.1H8.09195L7.73505 16.578L7.69482 16.2936L7.42893 16.1851C6.88592 15.9635 6.39588 15.6746 5.92301 15.3143L5.69705 15.1422L5.43349 15.2481L3.07204 16.1974L1.16813 12.9013L3.17976 11.3301L3.41233 11.1484L3.36571 10.857C3.32222 10.5853 3.29998 10.2878 3.29998 10C3.29998 9.7239 3.33207 9.42823 3.37771 9.14302L3.42433 8.85163L3.19176 8.66998L1.18013 7.09876L3.08404 3.80261L5.44549 4.75194L5.70792 4.85744L5.93354 4.68685C6.39687 4.33653 6.89943 4.03597 7.44093 3.81495L7.70682 3.70643L7.74705 3.42208L8.10395 0.900024H11.908L12.2649 3.42208L12.3052 3.70642L12.571 3.81495C13.114 4.03658 13.6041 4.32546 14.077 4.68574L14.3029 4.8579L14.5665 4.75194L16.9279 3.80261L18.8318 7.09876L16.8202 8.66998L16.5876 8.85163L16.6343 9.14302C16.6778 9.41524 16.7 9.70074 16.7 10C16.7 10.2994 16.6778 10.5909 16.6435 10.8765ZM5.89998 10C5.89998 12.2562 7.74384 14.1 9.99998 14.1C12.2561 14.1 14.1 12.2562 14.1 10C14.1 7.74388 12.2561 5.90002 9.99998 5.90002C7.74384 5.90002 5.89998 7.74388 5.89998 10Z" stroke="white"/>
</svg>
