<svg width="18" height="15" viewBox="0 0 18 15" fill="none" xmlns="http://www.w3.org/2000/svg">
<path d="M17.8608 3.27188C17.7583 3.15812 17.6123 3.09317 17.4591 3.09317H17.3576C17.2319 1.95855 16.2676 1.07305 15.1 1.07305H9.10812V0.540893C9.10812 0.24219 8.86593 0 8.56723 0H2.27175C1.01913 0 0 1.01913 0 2.27175C0 2.2878 0.000735615 2.30382 0.00216357 2.31978L0.867592 12.0205C0.867809 12.0233 0.868112 12.026 0.868371 12.0287C1.0068 13.3538 1.91857 14.2442 3.13722 14.2442H14.8629C16.0348 14.2442 16.924 13.3847 17.1283 12.0545C17.1297 12.0458 17.1309 12.037 17.1317 12.0282L17.9971 3.6898C18.0129 3.53753 17.9634 3.3856 17.8608 3.27188ZM16.2631 3.09317H10.2981C9.72829 3.09317 9.25096 2.69049 9.13517 2.15483H15.1001C15.6699 2.15483 16.1472 2.55747 16.2631 3.09317ZM16.0571 11.9027C16.0071 12.2146 15.779 13.1624 14.8628 13.1624H3.13718C2.35535 13.1624 2.00875 12.5215 1.94471 11.9202L1.082 2.24986C1.03276 1.6036 1.6229 1.08179 2.27175 1.08179H8.02638V1.90316C8.02638 3.15579 9.04551 4.17492 10.2981 4.17492H16.8592L16.0571 11.9027Z" fill="white"/>
</svg>
