<svg width="18" height="18" viewBox="0 0 18 18" fill="none" xmlns="http://www.w3.org/2000/svg">
<path d="M17.8331 5.91329L16.4884 4.58424C16.4883 4.58406 16.4882 4.58388 16.488 4.58375C16.4878 4.58361 16.4876 4.58348 16.4875 4.58334L15.1427 3.25425C15.036 3.14868 14.8911 3.08937 14.7399 3.08937C14.5888 3.08937 14.444 3.14868 14.3371 3.25425L13.6723 3.91134V0.562964C13.6723 0.252073 13.4172 0 13.1027 0H0.56962C0.255053 0 0 0.252073 0 0.562964V17.437C0 17.7479 0.255053 18 0.56962 18H13.1027C13.4172 18 13.6723 17.7479 13.6723 17.437V10.8215L17.8331 6.70941C18.0556 6.48958 18.0556 6.13316 17.8331 5.91329ZM12.5331 16.8741H1.13924V1.12593H12.5331V5.03727L7.82603 9.68925C7.74737 9.76707 7.69351 9.86588 7.671 9.97352L6.97109 13.3243C6.93231 13.5099 6.99064 13.7023 7.12617 13.8362C7.23408 13.9428 7.37944 14.0011 7.52896 14.0011C7.56728 14.0011 7.60588 13.9972 7.64411 13.9894L11.0343 13.2976C11.1434 13.2754 11.2433 13.2221 11.3219 13.1443L12.533 11.9474V16.8741H12.5331ZM8.57314 11.2237L9.76943 12.4061L8.2619 12.7137L8.57314 11.2237ZM10.9192 11.9501L9.03444 10.0874L14.74 4.4485L15.2796 4.98187L11.7999 8.421C11.5774 8.64087 11.5774 8.9973 11.7999 9.21717C11.9111 9.32701 12.0569 9.38205 12.2027 9.38205C12.3485 9.38205 12.4942 9.32701 12.6055 9.21717L16.0852 5.77809L16.6249 6.31142L10.9192 11.9501Z" fill="white"/>
<path d="M3.53898 4.07796H9.46777C9.77094 4.07796 10.0067 3.84216 10.0067 3.53898C10.0067 3.25265 9.77094 3 9.46777 3H3.53898C3.2358 3 3 3.25265 3 3.53898C3 3.84216 3.2358 4.07796 3.53898 4.07796Z" fill="white"/>
<path d="M3.53898 6.07796H9.46777C9.77094 6.07796 10.0067 5.84216 10.0067 5.53898C10.0067 5.25265 9.77094 5 9.46777 5H3.53898C3.2358 5 3 5.25265 3 5.53898C3 5.84216 3.2358 6.07796 3.53898 6.07796Z" fill="white"/>
<path d="M3.53898 8.07796H9.46777C9.77094 8.07796 10.0067 7.84216 10.0067 7.53898C10.0067 7.25265 9.77094 7 9.46777 7H3.53898C3.2358 7 3 7.25265 3 7.53898C3 7.84216 3.2358 8.07796 3.53898 8.07796Z" fill="white"/>
</svg>
