<svg width="24" height="24" viewBox="0 0 24 24" fill="none" xmlns="http://www.w3.org/2000/svg">
<path d="M10 18.75C10 19.9875 11.0125 21 12.25 21C13.4875 21 14.5 19.9875 14.5 18.75C14.5 17.5125 13.4875 16.5 12.25 16.5C11.0125 16.5 10 17.5125 10 18.75ZM10 5.25C10 6.4875 11.0125 7.5 12.25 7.5C13.4875 7.5 14.5 6.4875 14.5 5.25C14.5 4.0125 13.4875 3 12.25 3C11.0125 3 10 4.0125 10 5.25ZM10 12C10 13.2375 11.0125 14.25 12.25 14.25C13.4875 14.25 14.5 13.2375 14.5 12C14.5 10.7625 13.4875 9.75 12.25 9.75C11.0125 9.75 10 10.7625 10 12Z" fill="#253F66"/>
</svg>