<svg class="pull-right" width="24" height="24" viewBox="0 0 24 24" fill="none" xmlns="http://www.w3.org/2000/svg">
	<g opacity="0.5">
	<path d="M17.3442 10.4402C16.2459 10.4402 15.1964 9.99009 14.411 9.16995C13.5194 8.23727 13.0839 6.95002 13.2183 5.63811C13.2463 5.36216 13.4205 5.13246 13.67 5.0415C13.9195 4.949 14.1911 5.01375 14.3786 5.20954L18.2019 9.20387C18.3894 9.39965 18.4514 9.68331 18.3628 9.94384C18.2742 10.2059 18.0557 10.3863 17.79 10.4156C17.6424 10.4325 17.4933 10.4402 17.3442 10.4402ZM13.9003 5.61652C13.8885 5.61652 13.8767 5.61961 13.8678 5.62269C13.8471 5.6304 13.8117 5.65044 13.8058 5.7044C13.6907 6.82978 14.0627 7.93357 14.8288 8.73367C15.5935 9.53223 16.6504 9.92072 17.728 9.80202C17.7782 9.79585 17.7989 9.75885 17.8063 9.73727C17.8151 9.71106 17.8181 9.67406 17.7856 9.6386L13.9623 5.64581C13.9416 5.62423 13.9195 5.61652 13.9003 5.61652Z" fill="#253F66"/>
	<path d="M13.0386 17.1831C12.86 17.1831 12.6872 17.1106 12.5559 16.9734L6.93898 11.1076C6.75741 10.918 6.69393 10.6405 6.77217 10.3846C6.84893 10.1333 7.05117 9.94828 7.29917 9.90511C9.07354 9.59062 10.8922 10.1965 12.1632 11.5223C13.4312 12.8481 14.0099 14.7458 13.7088 16.5988C13.6674 16.8578 13.4903 17.069 13.2497 17.1492C13.1788 17.1708 13.108 17.1831 13.0386 17.1831ZM8.22621 10.4401C7.95016 10.4401 7.67264 10.4647 7.39659 10.5125C7.35674 10.5187 7.3405 10.548 7.33312 10.5711C7.32721 10.588 7.31983 10.6328 7.35526 10.6713L12.9721 16.5372C13.009 16.5757 13.0504 16.5664 13.0681 16.5603C13.0902 16.5526 13.1183 16.5356 13.1242 16.494C13.3929 14.8367 12.8762 13.141 11.7425 11.957C10.8066 10.9781 9.53411 10.4401 8.22621 10.4401Z" fill="#253F66"/>
	<path d="M10.5259 10.988C10.4507 10.988 10.3754 10.9572 10.3178 10.8971C10.2027 10.7768 10.2027 10.581 10.3178 10.4608L13.4768 7.16172C13.592 7.04147 13.7795 7.04147 13.8946 7.16172C14.0097 7.28196 14.0097 7.47775 13.8946 7.598L10.7356 10.8971C10.6765 10.9572 10.6012 10.988 10.5259 10.988Z" fill="#253F66"/>
	<path d="M12.9664 13.5328C12.8911 13.5328 12.8158 13.5019 12.7582 13.4418C12.6431 13.3216 12.6431 13.1258 12.7582 13.0055L15.9128 9.70957C16.028 9.58932 16.2155 9.58932 16.3306 9.70957C16.4457 9.82982 16.4457 10.0256 16.3306 10.1458L13.1745 13.4418C13.1169 13.5035 13.0417 13.5328 12.9664 13.5328Z" fill="#253F66"/>
	<path d="M5.2945 19C5.21921 19 5.14393 18.9692 5.08636 18.9091C4.97121 18.7888 4.97121 18.593 5.08636 18.4728L9.74815 13.6043C9.86329 13.4841 10.0508 13.4841 10.1659 13.6043C10.2811 13.7246 10.2811 13.9204 10.1659 14.0406L5.50264 18.9106C5.44507 18.9707 5.36978 19 5.2945 19Z" fill="#253F66"/>
	</g>
</svg>