<svg width="20" height="18" viewBox="0 0 20 18" fill="none" xmlns="http://www.w3.org/2000/svg">
<g opacity="0.5" clip-path="url(#clip0)">
<path d="M0.385182 8.84894L6.49622 15.2378C7.35452 16.1352 8.8889 15.5361 8.8889 14.2778V11.2278C14.2509 11.2907 16.4953 11.8086 15.1802 16.474C14.8906 17.4989 16.0638 18.2876 16.9052 17.6722C18.0611 16.8271 20 14.9087 20 11.6107C20 5.67022 14.6338 4.63036 8.8889 4.56144V1.50053C8.8889 0.241157 7.35362 -0.355926 6.49619 0.540463L0.385182 6.9288C-0.128394 7.46595 -0.128394 8.31178 0.385182 8.84894ZM1.1882 7.69685L7.29931 1.30796C7.47046 1.1288 7.77779 1.24782 7.77779 1.49998V5.66664C13.2331 5.66664 18.8889 6.05484 18.8889 11.6107C18.8889 14.1941 17.5 15.8528 16.2493 16.7673C18.0317 10.4481 13.729 10.1111 7.77779 10.1111V14.2778C7.77779 14.5298 7.4706 14.6489 7.29931 14.4698L1.1882 8.08088C1.13858 8.02927 1.11086 7.96046 1.11086 7.88887C1.11086 7.81727 1.13858 7.74846 1.1882 7.69685Z" fill="#253F66"/>
</g>
<defs>
<clipPath id="clip0">
<rect width="20" height="17.7778" fill="white" transform="translate(0 0.111084)"/>
</clipPath>
</defs>
</svg>